<?xml version="1.0" encoding="utf-8"?>
<!-- Generator: Adobe Illustrator 24.1.1, SVG Export Plug-In . SVG Version: 6.00 Build 0)  -->
<svg version="1.1" id="Camada_1" xmlns="http://www.w3.org/2000/svg" xmlns:xlink="http://www.w3.org/1999/xlink" x="0px" y="0px"
	 viewBox="0 0 300 235" style="enable-background:new 0 0 300 235;" xml:space="preserve">
<style type="text/css">
	.st0{fill:#717171;}
</style>
<g>
	<path class="st0" d="M101.3,80c-0.7-6.9-3.6-12.3-8.9-16.2C87.2,60,80.1,58,71.1,58c-6.1,0-11.2,0.8-15.4,2.5s-7.4,4-9.6,7
		c-2.2,3-3.3,6.4-3.3,10.2c-0.1,3.2,0.6,5.9,2,8.3c1.5,2.4,3.5,4.4,6.1,6.1s5.6,3.2,9,4.4c3.4,1.2,7,2.3,10.8,3.1l15.8,3.8
		c7.7,1.7,14.7,4,21.2,6.9c6.4,2.9,12,6.4,16.7,10.6s8.4,9.1,11,14.8s3.9,12.2,4,19.5c-0.1,10.8-2.8,20.1-8.2,28
		c-5.4,7.9-13.2,14-23.4,18.3S85.3,208,71,208c-14.2,0-26.6-2.2-37.1-6.5c-10.5-4.4-18.7-10.8-24.6-19.4c-5.9-8.6-9-19.2-9.3-31.9
		h36.1c0.4,5.9,2.1,10.8,5.1,14.8c3,3.9,7.1,6.9,12.1,8.9c5.1,2,10.8,3,17.3,3c6.3,0,11.8-0.9,16.5-2.8c4.7-1.8,8.3-4.4,10.9-7.7
		s3.9-7,3.9-11.3c0-4-1.2-7.3-3.5-10s-5.7-5-10.2-6.9c-4.4-1.9-9.9-3.6-16.3-5.2l-19.2-4.8c-14.9-3.6-26.6-9.3-35.2-17
		S4.6,93.2,4.7,80.1c-0.1-10.7,2.8-20,8.6-28S27,37.9,37.1,33.4s21.6-6.7,34.4-6.7c13.1,0,24.5,2.2,34.3,6.7s17.4,10.7,22.9,18.7
		c5.4,8,8.3,17.2,8.4,27.7h-35.8L101.3,80L101.3,80z"/>
	<path class="st0" d="M149.9,205.6V29.3h37.3V102h75.7V29.3H300v176.3h-37.2v-72.8h-75.7v72.8H149.9z"/>
</g>
</svg>
