<?xml version="1.0" encoding="utf-8"?>
<!-- Generator: Adobe Illustrator 24.1.1, SVG Export Plug-In . SVG Version: 6.00 Build 0)  -->
<svg version="1.1" id="Camada_1" xmlns="http://www.w3.org/2000/svg" xmlns:xlink="http://www.w3.org/1999/xlink" x="0px" y="0px"
	 viewBox="0 0 300 235" style="enable-background:new 0 0 300 235;" xml:space="preserve">
<style type="text/css">
	.st0{fill:url(#SVGID_1_);}
	.st1{fill:url(#SVGID_2_);}
</style>
<g>
	
		<linearGradient id="SVGID_1_" gradientUnits="userSpaceOnUse" x1="69.7" y1="28.8" x2="69.7" y2="210.1" gradientTransform="matrix(1 0 0 -1 0 237)">
		<stop  offset="0" style="stop-color:#667EEA"/>
		<stop  offset="1" style="stop-color:#764B7E"/>
	</linearGradient>
	<path class="st0" d="M124.5,120.9c-4.7-4.2-10.3-7.7-16.7-10.6c-6.4-2.9-13.5-5.2-21.2-6.9l-15.8-3.8c-3.8-0.9-7.5-1.9-10.8-3.1
		c-3.4-1.2-6.4-2.7-9-4.4c-2.6-1.7-4.6-3.7-6.1-6.1s-2.1-5.1-2-8.3c0-3.8,1.1-7.2,3.3-10.2s5.4-5.3,9.6-7S65.1,58,71.2,58
		c9,0,16,1.9,21.3,5.8c5.2,3.8,8.2,9.2,8.9,16.2H137c-0.2-10.5-3-19.7-8.4-27.7c-5.5-8-13.1-14.2-22.9-18.7s-21.2-6.7-34.3-6.7
		c-12.9,0-24.3,2.2-34.4,6.7S19,44.3,13.2,52.3s-8.6,17.3-8.6,28c-0.1,13,4.2,23.4,12.8,31.1s20.3,13.3,35.2,17l19.2,4.8
		c6.4,1.5,11.9,3.3,16.3,5.2c4.4,1.9,7.8,4.2,10.2,6.9c2.3,2.7,3.5,6,3.5,10c0,4.2-1.3,8-3.9,11.3s-6.2,5.8-10.9,7.7
		c-4.7,1.8-10.2,2.8-16.5,2.8c-6.4,0-12.2-1-17.3-3s-9.1-4.9-12.1-8.9c-3-3.9-4.7-8.9-5.1-14.8H0c0.3,12.7,3.4,23.3,9.3,31.9
		c5.9,8.6,14.1,15.1,24.6,19.4c10.5,4.4,22.9,6.5,37.1,6.5c14.3,0,26.6-2.2,36.8-6.5s18-10.4,23.4-18.3c5.4-7.9,8.2-17.2,8.2-28
		c-0.1-7.3-1.4-13.9-4-19.5C132.8,130,129.2,125.1,124.5,120.9z"/>
	
		<linearGradient id="SVGID_2_" gradientUnits="userSpaceOnUse" x1="224.95" y1="31.4" x2="224.95" y2="207.7" gradientTransform="matrix(1 0 0 -1 0 237)">
		<stop  offset="0" style="stop-color:#667EEA"/>
		<stop  offset="1" style="stop-color:#764B7E"/>
	</linearGradient>
	<polygon class="st1" points="262.8,29.3 262.8,102 187.1,102 187.1,29.3 149.9,29.3 149.9,205.6 187.1,205.6 187.1,132.8 
		262.8,132.8 262.8,205.6 300,205.6 300,29.3 	"/>
</g>
</svg>
